<svg width="85" height="73" viewBox="0 0 85 73" fill="none" xmlns="http://www.w3.org/2000/svg">
<rect y="30.3588" width="84.15" height="42.075" fill="url(#paint0_linear_29_26)"/>
<mask id="mask0_29_26" style="mask-type:luminance" maskUnits="userSpaceOnUse" x="0" y="30" width="85" height="43">
<rect y="30.3588" width="84.15" height="42.075" fill="white"/>
</mask>
<g mask="url(#mask0_29_26)">
<rect opacity="0.3" x="33.6602" y="89.7617" width="96.7974" height="23.3031" transform="rotate(-30 33.6602 89.7617)" fill="white"/>
<path d="M45.3113 49.4081C44.775 49.4081 44.3403 48.9734 44.3403 48.4371C44.3403 47.9009 44.775 47.4662 45.3113 47.4662H63.3434C63.8797 47.4662 64.3144 47.9009 64.3144 48.4371C64.3144 48.9734 63.8797 49.4081 63.3434 49.4081H45.3113Z" fill="white"/>
<path opacity="0.15" fill-rule="evenodd" clip-rule="evenodd" d="M0 30.3588H23.9504V73.0811H0V30.3588Z" fill="#001D4B"/>
<path fill-rule="evenodd" clip-rule="evenodd" d="M-14.3291 71.1391C-14.3291 80.0766 -7.08386 87.3218 1.85359 87.3218C10.791 87.3218 18.0363 80.0766 18.0363 71.1391C18.0363 62.2017 10.791 54.9564 1.85359 54.9564C-7.08386 54.9564 -14.3291 62.2017 -14.3291 71.1391ZM11.5632 71.1391C11.5632 76.5016 7.21606 80.8487 1.85359 80.8487C-3.50888 80.8487 -7.85603 76.5016 -7.85603 71.1391C-7.85603 65.7766 -3.50888 61.4295 1.85359 61.4295C7.21606 61.4295 11.5632 65.7766 11.5632 71.1391Z" fill="#E0987C"/>
<path d="M0 38.9474V38.1824H84.15V38.9474H0Z" fill="#D33234"/>
</g>
<rect x="11.8999" width="60.9396" height="30.4698" fill="url(#paint1_linear_29_26)"/>
<mask id="mask1_29_26" style="mask-type:luminance" maskUnits="userSpaceOnUse" x="11" y="0" width="62" height="31">
<rect x="11.8999" width="60.9396" height="30.4698" fill="white"/>
</mask>
<g mask="url(#mask1_29_26)">
<path d="M44.0625 15.0451H59.7252" stroke="#0069D5" stroke-width="1.95319" stroke-linecap="round" stroke-linejoin="round"/>
<path opacity="0.12" fill-rule="evenodd" clip-rule="evenodd" d="M11.8999 0H29.8953V30.9385H11.8999V0Z" fill="#001D4B"/>
<path opacity="0.3" fill-rule="evenodd" clip-rule="evenodd" d="M16.327 24.0243C17.0462 24.0243 17.6292 23.4413 17.6292 22.7222C17.6292 22.003 17.0462 21.42 16.327 21.42C15.6079 21.42 15.0249 22.003 15.0249 22.7222C15.0249 23.4413 15.6079 24.0243 16.327 24.0243ZM16.327 27.9307C17.0462 27.9307 17.6292 27.3477 17.6292 26.6286C17.6292 25.9094 17.0462 25.3264 16.327 25.3264C15.6079 25.3264 15.0249 25.9094 15.0249 26.6286C15.0249 27.3477 15.6079 27.9307 16.327 27.9307ZM20.8845 27.9307C21.6036 27.9307 22.1866 27.3477 22.1866 26.6286C22.1866 25.9094 21.6036 25.3264 20.8845 25.3264C20.1653 25.3264 19.5823 25.9094 19.5823 26.6286C19.5823 27.3477 20.1653 27.9307 20.8845 27.9307ZM26.7441 26.6286C26.7441 27.3477 26.1611 27.9307 25.4419 27.9307C24.7228 27.9307 24.1398 27.3477 24.1398 26.6286C24.1398 25.9094 24.7228 25.3264 25.4419 25.3264C26.1611 25.3264 26.7441 25.9094 26.7441 26.6286ZM22.1866 22.7222C22.1866 23.4413 21.6036 24.0243 20.8845 24.0243C20.1653 24.0243 19.5823 23.4413 19.5823 22.7222C19.5823 22.003 20.1653 21.42 20.8845 21.42C21.6036 21.42 22.1866 22.003 22.1866 22.7222ZM25.4419 24.0243C26.1611 24.0243 26.7441 23.4413 26.7441 22.7222C26.7441 22.003 26.1611 21.42 25.4419 21.42C24.7228 21.42 24.1398 22.003 24.1398 22.7222C24.1398 23.4413 24.7228 24.0243 25.4419 24.0243Z" fill="white"/>
<path d="M11.8999 6.82159V6.36585H72.8395V6.82159H11.8999Z" fill="#0069D5"/>
</g>
<defs>
<linearGradient id="paint0_linear_29_26" x1="110.854" y1="50.5192" x2="57.9344" y2="-5.49578" gradientUnits="userSpaceOnUse">
<stop stop-color="#FFB966"/>
<stop offset="1" stop-color="#FF895F"/>
<stop offset="1" stop-color="#FF895F"/>
</linearGradient>
<linearGradient id="paint1_linear_29_26" x1="94.9657" y1="21.6998" x2="78.1602" y2="-12.1524" gradientUnits="userSpaceOnUse">
<stop stop-color="#ACFF85"/>
<stop offset="1" stop-color="#51A4FF"/>
</linearGradient>
</defs>
</svg>
