<svg width="20" height="20" viewBox="0 0 20 20" fill="none" xmlns="http://www.w3.org/2000/svg">
<path fill-rule="evenodd" clip-rule="evenodd" d="M8.25087 11.822L0.537457 7.07418C0.272392 6.8529 0.113933 6.48652 0.113933 6.09496C0.113933 5.70339 0.272392 5.33702 0.537457 5.11573L8.25087 0.367955C8.65369 0.125572 9.09694 -0.000340982 9.54618 6.93517e-07C9.95539 0.00269034 10.3598 0.107727 10.7344 0.308607L19.2951 5.05638C19.6051 5.26542 19.7975 5.66316 19.7975 6.09496C19.7975 6.52675 19.6051 6.92449 19.2951 7.13353L10.7344 11.8813C10.3598 12.0822 9.95539 12.1872 9.54618 12.1899C9.09694 12.1903 8.65369 12.0643 8.25087 11.822ZM9.59488 1.73294C9.37533 1.73108 9.1585 1.79206 8.96183 1.91098L2.14442 6.05341L8.96183 10.184C9.1585 10.3029 9.37533 10.3639 9.59488 10.362C9.79669 10.3647 9.99642 10.312 10.1792 10.2077L17.6881 6.05341L10.1792 1.88724C9.99642 1.78299 9.79669 1.73025 9.59488 1.73294Z" fill="#878787"/>
<path d="M18.9834 9.97033L10.3643 14.3501C9.83712 14.654 9.22602 14.654 8.69887 14.3501L1.06337 9.9822C0.825028 9.84862 0.546317 9.88016 0.332226 10.0649C0.118135 10.2497 0.00118983 10.5596 0.0254424 10.878C0.049695 11.1963 0.211461 11.4747 0.449804 11.6083L8.06583 15.905C8.53839 16.1899 9.05793 16.3401 9.58514 16.3442C10.0563 16.3456 10.522 16.22 10.9486 15.9763L19.5386 11.6202C19.7232 11.5311 19.8701 11.3542 19.9454 11.1302C20.0207 10.9063 20.018 10.6547 19.9379 10.4332C19.7737 9.9912 19.3519 9.78667 18.9834 9.97033Z" fill="#878787"/>
<path d="M18.9834 13.6261L10.3643 18.0059C9.83712 18.3097 9.22602 18.3097 8.69887 18.0059L1.06337 13.6499C0.824974 13.5011 0.538884 13.5232 0.317866 13.7076C0.0968484 13.892 -0.0236458 14.209 0.00387742 14.5337C0.0314006 14.8584 0.202527 15.1387 0.449804 15.2641L8.06583 19.5608C8.53375 19.8496 9.05089 20.0001 9.5754 20C10.0368 19.997 10.4921 19.8714 10.9097 19.632L19.4996 15.276C19.6842 15.1868 19.8311 15.0099 19.9064 14.786C19.9818 14.5621 19.9791 14.3104 19.8989 14.089C19.7328 13.6759 19.3407 13.4776 18.9834 13.6261Z" fill="#878787"/>
</svg>
