<svg xmlns="http://www.w3.org/2000/svg" xmlns:xlink="http://www.w3.org/1999/xlink" width="500" zoomAndPan="magnify" viewBox="0 0 375 374.999991" height="500" preserveAspectRatio="xMidYMid meet" version="1.0"><defs><clipPath id="e375c9ccb4"><path d="M 112.5 125 L 250 125 L 250 262.5 L 112.5 262.5 Z M 112.5 125 " clip-rule="nonzero"/></clipPath></defs><g clip-path="url(#e375c9ccb4)"><path fill="#000000" d="M 238.453125 251.050781 L 123.949219 251.050781 L 123.949219 136.546875 L 192.652344 136.546875 L 192.652344 125.09375 L 123.949219 125.09375 C 117.628906 125.09375 112.5 130.226562 112.5 136.546875 L 112.5 251.050781 C 112.5 257.371094 117.628906 262.5 123.949219 262.5 L 238.453125 262.5 C 244.773438 262.5 249.90625 257.371094 249.90625 251.050781 L 249.90625 182.347656 L 238.453125 182.347656 Z M 238.453125 251.050781 " fill-opacity="1" fill-rule="nonzero"/></g><path fill="#000000" d="M 158.300781 216.882812 L 182.40625 216.882812 L 240.824219 158.460938 L 216.539062 134.175781 L 158.300781 192.414062 Z M 158.300781 216.882812 " fill-opacity="1" fill-rule="nonzero"/><path fill="#000000" d="M 258 125.09375 L 249.90625 117 C 245.425781 112.523438 238.179688 112.523438 233.714844 117 L 224.632812 126.082031 L 248.917969 150.367188 L 258 141.285156 C 262.476562 136.808594 262.476562 129.5625 258 125.09375 Z M 258 125.09375 " fill-opacity="1" fill-rule="nonzero"/></svg>